<svg width="24" height="24" viewBox="0 0 24 24" fill="none" xmlns="http://www.w3.org/2000/svg">
<path fill-rule="evenodd" clip-rule="evenodd" d="M7.44815 12C7.44815 11.4804 7.5344 10.9821 7.68853 10.5149L4.99228 8.456C4.46678 9.52288 4.17078 10.7251 4.17078 12C4.17078 13.2739 4.46653 14.4753 4.99115 15.5415L7.6859 13.4786C7.53328 13.0135 7.44815 12.5171 7.44815 12Z" fill="#FBBC05"/>
<path fill-rule="evenodd" clip-rule="evenodd" d="M12.1822 7.27275C13.3111 7.27275 14.3307 7.67275 15.1318 8.32725L17.4623 6C16.0422 4.76363 14.2214 4 12.1822 4C9.01618 4 6.29518 5.8105 4.99231 8.456L7.68843 10.5149C8.30968 8.62912 10.0806 7.27275 12.1822 7.27275Z" fill="#EA4335"/>
<path fill-rule="evenodd" clip-rule="evenodd" d="M12.1822 16.7273C10.0807 16.7273 8.30981 15.3709 7.68856 13.4851L4.99231 15.5436C6.29518 18.1895 9.01619 20 12.1822 20C14.1362 20 16.0018 19.3061 17.4019 18.0061L14.8427 16.0276C14.1206 16.4825 13.2112 16.7273 12.1822 16.7273Z" fill="#34A853"/>
<path fill-rule="evenodd" clip-rule="evenodd" d="M19.8293 12C19.8293 11.5272 19.7564 11.0181 19.6471 10.5455H12.1821V13.6364H16.4791C16.2643 14.6902 15.6795 15.5004 14.8426 16.0276L17.4019 18.0061C18.8726 16.6411 19.8293 14.6076 19.8293 12Z" fill="#4285F4"/>
</svg>
